<svg xmlns="http://www.w3.org/2000/svg" width="32" height="32" viewBox="0 0 64 64" fill="none">
<rect x="4" y="4" width="56" height="56" rx="14" fill="#F7F6F2" stroke="#ECE6DA" stroke-width="2"/>
<g stroke="#1C1C1E" stroke-width="4.5" stroke-linecap="round" stroke-linejoin="round" fill="none">
  <path d="M18 44 V18 L27 31 L37 18 V44"/>
  <path d="M46 44 V18 L37 31 L27 18" opacity="0"/>
</g>
<path d="M29 17 C29 13,32 11,32 8 C34 11,37 14,37 18 C37 21,34.5 24,33 26 C31.5 23,29 21,29 17 Z" fill="#CDA349"/>
<g stroke="#CDA349" stroke-width="2.5" stroke-linecap="round">
  <path d="M16 46 C19 48,22 48,25 46"/>
  <path d="M39 46 C42 48,45 48,48 46"/>
</g>
</svg>