<svg viewBox="0 0 96 96" xmlns="http://www.w3.org/2000/svg" role="img" aria-label="MELQART mark">
  <rect x="3" y="3" width="90" height="90" rx="23" fill="#FCFAF6" stroke="#D8C9B2" stroke-width="2"/>
  <path d="M26 68V28h10l12 16 12-16h10v40H60V45L48 60 36 45v23z" fill="none" stroke="#181B1D" stroke-width="6.6" stroke-linejoin="round"/>
  <path d="M49 13c4 5 6 8 6 13 0 6-3 10-7 15-2-4-4-7-4-11 0-5 2-8 5-12zm-6 7c-2 3-3 5-3 8 0 3 1 5 3 8 2-3 4-5 4-8 0-3-2-5-4-8z" fill="#A4713A"/>
  <path d="M40 74c4-6 6-10 8-16 2 6 4 10 8 16" fill="none" stroke="#A4713A" stroke-width="4.5" stroke-linecap="round" stroke-linejoin="round"/>
  <path d="M18 63c6 4 12 4 18 0M18 71c6 4 12 4 18 0" fill="none" stroke="#A4713A" stroke-width="3.2" stroke-linecap="round" opacity=".9"/>
  <path d="M60 63c6 4 12 4 18 0M60 71c6 4 12 4 18 0" fill="none" stroke="#A4713A" stroke-width="3.2" stroke-linecap="round" opacity=".9"/>
</svg>
