<svg xmlns="http://www.w3.org/2000/svg" width="430" height="70" viewBox="0 0 430 70" fill="none"><g fill="#F7F6F2"><rect x="8" y="10" width="8" height="50" rx="1"/><rect x="42" y="10" width="8" height="50" rx="1"/><polygon points="16,10 25,10 29,24 33,10 42,10 33,42 25,42"/><rect x="76" y="12" width="26" height="6" rx="1"/><rect x="76" y="32" width="26" height="6" rx="1"/><rect x="76" y="52" width="26" height="6" rx="1"/><rect x="126" y="10" width="8" height="50" rx="1"/><rect x="126" y="54" width="28" height="6" rx="1"/><path d="M 198 17 a 18 18 0 1 1 0 36 a 18 18 0 1 1 0 -36" fill="none" stroke="#F7F6F2" stroke-width="8" stroke-linecap="round"/><path d="M 208 45 l 12 12" stroke="#F7F6F2" stroke-width="8" stroke-linecap="round"/><path d="M 248 60 L 264 10 L 280 60" fill="none" stroke="#F7F6F2" stroke-width="8" stroke-linecap="round" stroke-linejoin="round"/><path d="M 254 44 H 274" stroke="#F7F6F2" stroke-width="8" stroke-linecap="round"/><rect x="302" y="10" width="8" height="50" rx="1"/><path d="M 310 14 H 330 a 12 12 0 0 1 0 24 H 310" fill="none" stroke="#F7F6F2" stroke-width="8" stroke-linecap="round" stroke-linejoin="round"/><path d="M 322 38 L 336 60" fill="none" stroke="#F7F6F2" stroke-width="8" stroke-linecap="round"/><rect x="360" y="10" width="40" height="8" rx="1"/><rect x="376" y="10" width="8" height="50" rx="1"/></g></svg>